<?xml version="1.0" encoding="utf-8" standalone="no"?>
<!DOCTYPE svg PUBLIC "-//W3C//DTD SVG 1.1//EN"
  "http://www.w3.org/Graphics/SVG/1.1/DTD/svg11.dtd">
<svg xmlns:xlink="http://www.w3.org/1999/xlink" width="538.56pt" height="174.744pt" viewBox="0 0 538.56 174.744" xmlns="http://www.w3.org/2000/svg" version="1.1">
 <metadata>
  <rdf:RDF xmlns:dc="http://purl.org/dc/elements/1.1/" xmlns:cc="http://creativecommons.org/ns#" xmlns:rdf="http://www.w3.org/1999/02/22-rdf-syntax-ns#">
   <cc:Work>
    <dc:type rdf:resource="http://purl.org/dc/dcmitype/StillImage"/>
    <dc:date>2026-09-24T09:16:17.437635</dc:date>
    <dc:format>image/svg+xml</dc:format>
    <dc:creator>
     <cc:Agent>
      <dc:title>Matplotlib v3.11.2, https://matplotlib.org/</dc:title>
     </cc:Agent>
    </dc:creator>
   </cc:Work>
  </rdf:RDF>
 </metadata>
 <defs>
  <style type="text/css">*{stroke-linejoin: round; stroke-linecap: butt}</style>
 </defs>
 <g id="figure_1">
  <g id="patch_1">
   <path d="M 0 174.744 
L 538.56 174.744 
L 538.56 0 
L 0 0 
L 0 174.744 
z
" style="fill: none"/>
  </g>
  <g id="axes_1">
   <g id="patch_2">
    <path d="M 166.587982 80.595028 
L 233.848251 80.595028 
L 233.848251 48.065565 
L 166.587982 48.065565 
z
" clip-path="url(#p27ed9099c1)" style="fill: #eef2f5"/>
   </g>
   <g id="patch_3">
    <path d="M 166.587982 80.595028 
L 233.848251 80.595028 
L 233.848251 48.065565 
L 166.587982 48.065565 
z
" clip-path="url(#p27ed9099c1)" style="fill: #aab8c4"/>
   </g>
   <g id="patch_4">
    <path d="M 244.657937 80.595028 
L 311.918206 80.595028 
L 311.918206 48.065565 
L 244.657937 48.065565 
z
" clip-path="url(#p27ed9099c1)" style="fill: #eef2f5"/>
   </g>
   <g id="patch_5">
    <path d="M 244.657937 80.595028 
L 311.918206 80.595028 
L 311.918206 48.065565 
L 244.657937 48.065565 
z
" clip-path="url(#p27ed9099c1)" style="fill: #aab8c4"/>
   </g>
   <g id="patch_6">
    <path d="M 322.727892 80.595028 
L 389.988161 80.595028 
L 389.988161 48.065565 
L 322.727892 48.065565 
z
" clip-path="url(#p27ed9099c1)" style="fill: #eef2f5"/>
   </g>
   <g id="patch_7">
    <path d="M 322.727892 80.595028 
L 325.730583 80.595028 
L 325.730583 48.065565 
L 322.727892 48.065565 
z
" clip-path="url(#p27ed9099c1)" style="fill: #bf5540"/>
   </g>
   <g id="patch_8">
    <path d="M 166.587982 143.485325 
L 233.848251 143.485325 
L 233.848251 110.955861 
L 166.587982 110.955861 
z
" clip-path="url(#p27ed9099c1)" style="fill: #eef2f5"/>
   </g>
   <g id="patch_9">
    <path d="M 166.587982 143.485325 
L 233.848251 143.485325 
L 233.848251 110.955861 
L 166.587982 110.955861 
z
" clip-path="url(#p27ed9099c1)" style="fill: #1d6e8b"/>
   </g>
   <g id="patch_10">
    <path d="M 244.657937 143.485325 
L 311.918206 143.485325 
L 311.918206 110.955861 
L 244.657937 110.955861 
z
" clip-path="url(#p27ed9099c1)" style="fill: #eef2f5"/>
   </g>
   <g id="patch_11">
    <path d="M 244.657937 143.485325 
L 311.918206 143.485325 
L 311.918206 110.955861 
L 244.657937 110.955861 
z
" clip-path="url(#p27ed9099c1)" style="fill: #1d6e8b"/>
   </g>
   <g id="patch_12">
    <path d="M 322.727892 143.485325 
L 389.988161 143.485325 
L 389.988161 110.955861 
L 322.727892 110.955861 
z
" clip-path="url(#p27ed9099c1)" style="fill: #eef2f5"/>
   </g>
   <g id="patch_13">
    <path d="M 322.727892 143.485325 
L 389.988161 143.485325 
L 389.988161 110.955861 
L 322.727892 110.955861 
z
" clip-path="url(#p27ed9099c1)" style="fill: #2f7d5c"/>
   </g>
   <g id="text_1">
    <text style="font-weight: 700; font-size: 12.5px; font-family: 'Segoe UI', 'DejaVu Sans'; text-anchor: middle; fill: #16212c" x="200.218117" y="97.285578" transform="rotate(-0 200.218117 97.285578)">13/13</text>
   </g>
   <g id="text_2">
    <text style="font-weight: 700; font-size: 12.5px; font-family: 'Segoe UI', 'DejaVu Sans'; text-anchor: middle; fill: #16212c" x="278.288072" y="97.285578" transform="rotate(-0 278.288072 97.285578)">13/13</text>
   </g>
   <g id="text_3">
    <text style="font-weight: 700; font-size: 12.5px; font-family: 'Segoe UI', 'DejaVu Sans'; text-anchor: middle; fill: #bf5540" x="356.358027" y="97.285578" transform="rotate(-0 356.358027 97.285578)">0/13</text>
   </g>
   <g id="text_4">
    <text style="font-size: 12.5px; font-family: 'Segoe UI', 'DejaVu Sans'; text-anchor: end; fill: #55636f" x="156.979372" y="67.51975" transform="rotate(-0 156.979372 67.51975)">Punto de partida</text>
   </g>
   <g id="text_5">
    <text style="font-weight: 700; font-size: 12.5px; font-family: 'Segoe UI', 'DejaVu Sans'; text-anchor: middle; fill: #16212c" x="200.218117" y="160.175875" transform="rotate(-0 200.218117 160.175875)">13/13</text>
   </g>
   <g id="text_6">
    <text style="font-weight: 700; font-size: 12.5px; font-family: 'Segoe UI', 'DejaVu Sans'; text-anchor: middle; fill: #16212c" x="278.288072" y="160.175875" transform="rotate(-0 278.288072 160.175875)">13/13</text>
   </g>
   <g id="text_7">
    <text style="font-weight: 700; font-size: 12.5px; font-family: 'Segoe UI', 'DejaVu Sans'; text-anchor: middle; fill: #16212c" x="356.358027" y="160.175875" transform="rotate(-0 356.358027 160.175875)">13/13</text>
   </g>
   <g id="text_8">
    <text style="font-weight: 700; font-size: 12.5px; font-family: 'Segoe UI', 'DejaVu Sans'; text-anchor: end; fill: #16212c" x="156.979372" y="130.605481" transform="rotate(-0 156.979372 130.605481)">Sistema final</text>
   </g>
   <g id="text_9">
    <text style="font-size: 11px; font-family: 'Segoe UI', 'DejaVu Sans'; fill: #5f6f80" transform="translate(169.019367 20.54817)">el fragmento</text>
    <text style="font-size: 11px; font-family: 'Segoe UI', 'DejaVu Sans'; fill: #5f6f80" transform="translate(186.410538 36.120475)">existe</text>
   </g>
   <g id="text_10">
    <text style="font-size: 11px; font-family: 'Segoe UI', 'DejaVu Sans'; fill: #5f6f80" transform="translate(255.806822 20.489732)">el agente</text>
    <text style="font-size: 11px; font-family: 'Segoe UI', 'DejaVu Sans'; fill: #5f6f80" transform="translate(265.037369 36.172037)">lo vio</text>
   </g>
   <g id="text_11">
    <text style="font-size: 11px; font-family: 'Segoe UI', 'DejaVu Sans'; fill: #5f6f80" transform="translate(317.049355 20.577389)">la frase respalda</text>
    <text style="font-size: 11px; font-family: 'Segoe UI', 'DejaVu Sans'; fill: #5f6f80" transform="translate(324.262949 35.029928)">lo que afirma</text>
   </g>
   <g id="patch_14">
    <path d="M 425.997407 40.0868 
Q 375.208828 28.585659 331.553458 62.146555 
" style="fill: none; stroke: #bf5540; stroke-width: 1.4; stroke-linecap: round"/>
    <path d="M 337.041164 61.081153 
L 331.553458 62.146555 
L 333.99376 57.117149 
z
" style="fill: #bf5540; stroke: #bf5540; stroke-width: 1.4; stroke-linecap: round"/>
   </g>
   <g id="text_12">
    <text style="font-weight: 700; font-size: 12.5px; font-family: 'Segoe UI', 'DejaVu Sans'; text-anchor: start; fill: #bf5540" x="401.998924" y="51.797176" transform="rotate(-0 401.998924 51.797176)">aquí se caía todo</text>
   </g>
  </g>
 </g>
 <defs>
  <clipPath id="p27ed9099c1">
   <rect x="1.44" y="1.44" width="535.68" height="171.864"/>
  </clipPath>
 </defs>
</svg>
